<svg xmlns="http://www.w3.org/2000/svg" width="1000" height="820" viewBox="0 0 1000 820">
<rect width="1000" height="820" rx="28" fill="#f5f7fb"/>
<text x="60" y="62" font-family="Arial,sans-serif" font-size="34" font-weight="700" fill="#172033">VPN-Bench architecture</text>
<text x="60" y="96" font-family="Arial,sans-serif" font-size="17" fill="#748199">Isolated VPN execution · repeatable checks · measurement history</text>
<rect x="60" y="135" width="400" height="110" rx="18" fill="#172033"/>
<text x="260" y="178" text-anchor="middle" font-family="Arial,sans-serif" font-size="22" font-weight="700" fill="#fff">Web UI / API</text>
<text x="260" y="211" text-anchor="middle" font-family="Arial,sans-serif" font-size="15" fill="#b8c3d7">Controller · FastAPI</text>
<rect x="540" y="135" width="400" height="110" rx="18" fill="#fff" stroke="#dfe5ef"/>
<text x="740" y="178" text-anchor="middle" font-family="Arial,sans-serif" font-size="22" font-weight="700" fill="#172033">Worker</text>
<text x="740" y="205" text-anchor="middle" font-family="Arial,sans-serif" font-size="15" fill="#748199">privileged</text>
<text x="740" y="225" text-anchor="middle" font-family="Arial,sans-serif" font-size="15" fill="#748199">runtime</text>
<path d="M460 190h80" stroke="#91a0b8" stroke-width="3"/>
<text x="500" y="176" text-anchor="middle" font-family="Arial,sans-serif" font-size="14" fill="#748199">job</text>
<rect x="60" y="285" width="400" height="110" rx="18" fill="#fff" stroke="#dfe5ef"/>
<text x="260" y="328" text-anchor="middle" font-family="Arial,sans-serif" font-size="22" font-weight="700" fill="#172033">Network NS</text>
<text x="260" y="355" text-anchor="middle" font-family="Arial,sans-serif" font-size="15" fill="#748199">separate network namespace</text>
<text x="260" y="375" text-anchor="middle" font-family="Arial,sans-serif" font-size="15" fill="#748199">for each job</text>
<rect x="540" y="285" width="400" height="110" rx="18" fill="#3478f6"/>
<text x="740" y="328" text-anchor="middle" font-family="Arial,sans-serif" font-size="22" font-weight="700" fill="#fff">VPN runtime</text>
<text x="740" y="355" text-anchor="middle" font-family="Arial,sans-serif" font-size="15" fill="#e9edff">LX · Extended · WireGuard</text>
<text x="740" y="375" text-anchor="middle" font-family="Arial,sans-serif" font-size="15" fill="#e9edff">· Xray</text>
<path d="M740 245v40" stroke="#91a0b8" stroke-width="3"/>
<text x="758" y="268" font-family="Arial,sans-serif" font-size="14" fill="#748199">isolation</text>
<path d="M460 340h80" stroke="#91a0b8" stroke-width="3"/>
<text x="500" y="326" text-anchor="middle" font-family="Arial,sans-serif" font-size="14" fill="#748199">connection</text>
<rect x="60" y="445" width="880" height="315" rx="22" fill="#fff" stroke="#dfe5ef"/>
<text x="90" y="490" font-family="Arial,sans-serif" font-size="21" font-weight="700" fill="#172033">Measurement pipeline</text>
<g font-family="Arial,sans-serif" font-size="15" font-weight="600" fill="#315078">
<rect x="90" y="520" width="250" height="70" rx="14" fill="#eef3fb"/><text x="215" y="561" text-anchor="middle">Connection</text>
<rect x="375" y="520" width="250" height="70" rx="14" fill="#eef3fb"/><text x="500" y="561" text-anchor="middle">DNS / TCP</text>
<rect x="660" y="520" width="250" height="70" rx="14" fill="#eef3fb"/><text x="785" y="561" text-anchor="middle">HTTP / TLS</text>
<rect x="90" y="620" width="250" height="70" rx="14" fill="#eef3fb"/><text x="215" y="653" text-anchor="middle">Latency · packet</text><text x="215" y="673" text-anchor="middle">loss</text>
<rect x="375" y="620" width="250" height="70" rx="14" fill="#eef3fb"/><text x="500" y="653" text-anchor="middle">Speed · bypass</text><text x="500" y="673" text-anchor="middle">checks</text>
<rect x="660" y="620" width="250" height="70" rx="14" fill="#eaf2ff"/><text x="785" y="653" text-anchor="middle">History</text><text x="785" y="673" text-anchor="middle">SQLite · UI</text>
</g>
<g stroke="#91a0b8" stroke-width="2"><path d="M340 555h35"/><path d="M625 555h35"/><path d="M785 590v30"/><path d="M340 655h35"/><path d="M625 655h35"/></g>
<text x="90" y="730" font-family="Arial,sans-serif" font-size="14" fill="#8a95a8">VPN traffic stays inside the worker network namespace and does not replace the host's main route.</text>
</svg>