<svg xmlns="http://www.w3.org/2000/svg" width="1200" height="470" viewBox="0 0 1200 470"><rect width="1200" height="470" rx="28" fill="#f5f7fb"/><text x="60" y="65" font-family="Arial,sans-serif" font-size="32" font-weight="700" fill="#172033">От подписки до результата теста</text><g font-family="Arial,sans-serif"><g fill="#fff" stroke="#dfe5ef"><rect x="60" y="125" width="190" height="110" rx="18"/><rect x="290" y="125" width="190" height="110" rx="18"/><rect x="520" y="125" width="190" height="110" rx="18"/><rect x="750" y="125" width="190" height="110" rx="18"/><rect x="980" y="125" width="160" height="110" rx="18"/></g><g font-size="19" font-weight="700" fill="#172033" text-anchor="middle"><text x="155" y="166">1 · Провайдер</text><text x="155" y="198" font-size="14" font-weight="400" fill="#748199">URL подписки</text><text x="385" y="166">2 · Импорт</text><text x="385" y="198" font-size="14" font-weight="400" fill="#748199">разбор + нормализация</text><text x="615" y="166">3 · Скрининг</text><text x="615" y="198" font-size="14" font-weight="400" fill="#748199">быстрый первый проход</text><text x="845" y="166">4 · Тест</text><text x="845" y="198" font-size="14" font-weight="400" fill="#748199">отобранные узлы</text><text x="1060" y="166">5 · История</text><text x="1060" y="198" font-size="14" font-weight="400" fill="#748199">измерения</text></g><g stroke="#91a0b8" stroke-width="3"><path d="M250 180h40"/><path d="M480 180h40"/><path d="M710 180h40"/><path d="M940 180h40"/></g><rect x="180" y="300" width="840" height="92" rx="18" fill="#3478f6"/><text x="600" y="337" text-anchor="middle" font-family="Arial,sans-serif" font-size="21" font-weight="700" fill="#fff">Реальное сетевое поведение</text><text x="600" y="368" text-anchor="middle" font-family="Arial,sans-serif" font-size="15" fill="#eaf0ff">DNS · TCP/TLS · HTTP/HTTPS · задержка · jitter · packet loss · throughput · whitelist-sensitive targets</text></g></svg>